<?xml version="1.0" encoding="UTF-8" standalone="no"?>
<!DOCTYPE svg PUBLIC "-//W3C//DTD SVG 1.1//EN" "http://www.w3.org/Graphics/SVG/1.1/DTD/svg11.dtd">
<svg width="100%" height="100%" viewBox="0 0 16 16" version="1.1" xmlns="http://www.w3.org/2000/svg" xmlns:xlink="http://www.w3.org/1999/xlink" xml:space="preserve" xmlns:serif="http://www.serif.com/" style="fill-rule:evenodd;clip-rule:evenodd;stroke-linejoin:round;stroke-miterlimit:2;">
    <g transform="matrix(6.12323e-17,-1,1,6.12323e-17,-0.223007,16.2389)">
        <circle cx="8.229" cy="8.233" r="7.99" style="fill:url(#_Linear1);"/>
    </g>
    <g transform="matrix(4.20598e-17,0.686888,-0.788544,4.82844e-17,14.4415,2.82366)">
        <path d="M6.31,2.809C6.545,2.4 7.025,2.141 7.55,2.141C8.075,2.141 8.555,2.4 8.791,2.809C10.126,5.129 12.224,8.775 13.461,10.925C13.677,11.3 13.654,11.745 13.402,12.102C13.149,12.458 12.702,12.675 12.221,12.675C9.647,12.675 5.454,12.675 2.88,12.675C2.399,12.675 1.952,12.458 1.699,12.102C1.446,11.745 1.424,11.3 1.639,10.925C2.876,8.775 4.975,5.129 6.31,2.809Z" style="fill-opacity:0.65;"/>
    </g>
    <defs>
        <linearGradient id="_Linear1" x1="0" y1="0" x2="1" y2="0" gradientUnits="userSpaceOnUse" gradientTransform="matrix(15.9802,0,0,15.9802,0.238894,8.2329)"><stop offset="0" style="stop-color:rgb(255,0,64);stop-opacity:1"/><stop offset="1" style="stop-color:rgb(197,0,255);stop-opacity:1"/></linearGradient>
    </defs>
</svg>
