<?xml version="1.0" encoding="UTF-8" standalone="no"?>
<!DOCTYPE svg PUBLIC "-//W3C//DTD SVG 1.1//EN" "http://www.w3.org/Graphics/SVG/1.1/DTD/svg11.dtd">
<svg width="100%" height="100%" viewBox="0 0 16 16" version="1.1" xmlns="http://www.w3.org/2000/svg" xmlns:xlink="http://www.w3.org/1999/xlink" xml:space="preserve" xmlns:serif="http://www.serif.com/" style="fill-rule:evenodd;clip-rule:evenodd;stroke-linejoin:round;stroke-miterlimit:2;">
    <g>
        <path d="M0.02,8.01C0.02,3.6 3.6,0.02 8.01,0.02C12.42,0.02 16,3.6 16,8.01C16,12.42 12.42,16 8.01,16C3.6,16 0.02,12.42 0.02,8.01ZM12.226,7.158C12.549,7.319 12.753,7.649 12.753,8.01C12.753,8.37 12.549,8.7 12.226,8.862C10.397,9.779 7.522,11.22 5.827,12.07C5.531,12.218 5.18,12.202 4.899,12.029C4.618,11.856 4.447,11.549 4.447,11.218L4.447,4.802C4.447,4.472 4.618,4.164 4.899,3.991C5.18,3.817 5.531,3.802 5.827,3.949C7.522,4.799 10.397,6.241 12.226,7.158Z" style="fill:url(#_Linear1);"/>
    </g>
    <defs>
        <linearGradient id="_Linear1" x1="0" y1="0" x2="1" y2="0" gradientUnits="userSpaceOnUse" gradientTransform="matrix(15.9802,0,0,15.9802,0.238894,8.2329)"><stop offset="0" style="stop-color:rgb(255,0,64);stop-opacity:1"/><stop offset="1" style="stop-color:rgb(197,0,255);stop-opacity:1"/></linearGradient>
    </defs>
</svg>
